# xmcd CD database file
#
# Track frame offsets:
#	150
#	13456
#	27324
#	39877
#	52644
#	64587
#	77268
#	87682
#	100761
#	112759
#	125393
#	137037
#	148503
#	157795
#	172303
#	185360
#
# Disc length: 2640 seconds
#
# Revision: 0
# Processed by: cddbd v1.4PL0 Copyright (c) Steve Scherf et al.
# Submitted via: CDex 1.50Beta7
#
DISCID=c40a4e10
DTITLE=Stan Kenton - Street of Dreams
DYEAR=1900
DGENRE=Jazz
TTITLE0=Crazy rhythm
TTITLE1=Street of Dreams
TTITLE2=Baia
TTITLE3=April in Paris
TTITLE4=Autumn in New York
TTITLE5=I've got you under my skin
TTITLE6=How high the moon
TTITLE7=My reverie
TTITLE8=You and the night and the music
TTITLE9=Under a blanket of blue
TTITLE10=Alone too long
TTITLE11=More love than your love
TTITLE12=The lady in red
TTITLE13=Don't take your love from me
TTITLE14=A the of four values
TTITLE15=Theme and variations
EXTD=
EXTT0=
EXTT1=
EXTT2=
EXTT3=
EXTT4=
EXTT5=
EXTT6=
EXTT7=
EXTT8=
EXTT9=
EXTT10=
EXTT11=
EXTT12=
EXTT13=
EXTT14=
EXTT15=
PLAYORDER=
